<svg width="0" height="0"  class="hidden">
    <symbol viewBox="0 0 141 70" xmlns="http://www.w3.org/2000/svg" id="logo">
        <path d="M0.879501 56.5144V34.6653H3.30073V54.4568H13.6502V56.5144H0.879501Z" fill="currentColor"/>
        <path d="M21.0656 34.6653V50.0994C21.0656 52.6414 22.8817 54.7591 26.301 54.7591C29.7204 54.7591 31.5365 52.6414 31.5365 50.0994V34.6653H33.9577V49.9173C33.9577 54.2754 30.8099 56.8174 26.301 56.8174C21.7922 56.8174 18.6444 54.2754 18.6444 49.9173V34.6653H21.0656Z" fill="currentColor"/>
        <path d="M43.8544 54.4553H48.3939C51.9647 54.4553 53.7201 53.2444 53.7201 50.5215C53.7201 47.7367 51.481 46.1034 48.031 46.1034H43.8544V54.4553ZM43.8544 44.0451H48.091C51.7526 44.0451 53.175 42.1683 53.175 40.3229C53.175 37.8716 51.844 36.7214 49.0598 36.7214H43.8544V44.0451ZM41.4331 34.6631H49.4834C53.2964 34.6631 55.5963 37.0843 55.5963 40.0506C55.5963 42.4412 54.5374 44.1659 51.9047 45.0733L51.9347 45.1346C54.386 45.7391 56.1413 47.9188 56.1413 50.6423C56.1413 53.9102 54.1438 56.5129 48.2124 56.5129H41.4331V34.6631Z" fill="currentColor"/>
        <path d="M75.662 34.6653V36.7235H64.979V44.0473H72.5756V46.1049H64.979V54.4575H76.2671V56.5144H62.5584V34.6653H75.662Z" fill="currentColor"/>
        <path d="M84.1671 44.5282H88.5552C91.8839 44.5282 93.6392 43.2879 93.6392 40.5337C93.6392 37.5987 91.6423 36.7207 88.5252 36.7207H84.1671V44.5282ZM81.7465 56.5123V34.6631H88.7667C93.4878 34.6631 96.0605 36.7814 96.0605 40.4136C96.0605 43.5 94.275 45.2554 91.703 46.1027L96.3327 56.5123H93.7006L89.2824 46.5865H84.1671V56.5123H81.7465Z" fill="currentColor"/>
        <path d="M109.923 54.7588C113.767 54.7588 116.036 51.7932 116.036 45.5896C116.036 39.3854 113.767 36.4204 109.923 36.4204C106.079 36.4204 103.81 39.3854 103.81 45.5896C103.81 51.7932 106.079 54.7588 109.923 54.7588ZM109.923 34.3628C115.28 34.3628 118.456 38.2966 118.456 45.5896C118.456 52.8827 115.28 56.8171 109.923 56.8171C104.566 56.8171 101.389 52.8827 101.389 45.5896C101.389 38.2966 104.566 34.3628 109.923 34.3628Z" fill="currentColor"/>
        <path d="M124.237 56.5144V34.6653H127.717L137.25 51.4918H137.372V34.6653H139.55V56.5144H137.553L126.477 37.0258H126.416V56.5144H124.237Z" fill="currentColor"/>
        <path d="M35.957 70C34.454 70 33.8342 69.0319 33.4623 68.1884L33.4029 68.0574L34.3371 67.7251L34.3844 67.8497C34.7065 68.6932 35.233 69.1022 35.9941 69.1022C36.8235 69.1022 37.3187 68.706 37.3187 68.0415C37.3187 67.3385 36.5647 67.0573 35.6912 66.7314C34.7052 66.3672 33.5882 65.9519 33.5882 64.7537C33.5882 63.6834 34.4841 62.9102 35.718 62.9102C36.8561 62.9102 37.6785 63.5236 38.0344 64.6387L38.0798 64.7793L37.1443 64.9901L37.1117 64.8624C36.9424 64.201 36.4145 63.8048 35.7001 63.8048C35.2918 63.8048 34.6061 63.923 34.5953 64.6994C34.5882 65.2618 35.2892 65.5238 36.1014 65.8273C37.1436 66.2139 38.3258 66.6547 38.3258 67.9136C38.3258 69.2204 37.4402 70 35.957 70Z" fill="currentColor"/>
        <path d="M42.6991 69.9975C41.2039 69.9975 40.2383 69.122 40.2383 67.7673V63.0003H41.2447V67.8249C41.2447 68.6013 41.8154 69.1029 42.6991 69.1029C43.5823 69.1029 44.1529 68.6013 44.1529 67.8249V63.0003H45.1587V67.7673C45.1587 69.122 44.1938 69.9975 42.6991 69.9975Z" fill="currentColor"/>
        <path d="M49.3218 69.908H47.4406V63.0003H49.3589C51.3194 63.0003 52.4901 64.2911 52.4901 66.4542C52.4901 68.5821 51.2759 69.908 49.3218 69.908ZM48.447 69.0102H49.3033C50.75 69.0102 51.483 68.1507 51.483 66.4542C51.483 64.7576 50.7622 63.8981 49.3404 63.8981H48.447V69.0102Z" fill="currentColor"/>
        <path d="M59.9294 69.908H58.9229V63.8981H56.9381V63.0003H61.9141V63.8981H59.9294V69.908Z" fill="currentColor"/>
        <path d="M65.6815 69.9968C63.9485 69.9968 62.9541 68.7061 62.9541 66.4535C62.9541 64.201 63.9485 62.9102 65.6815 62.9102C67.4151 62.9102 68.4094 64.201 68.4094 66.4535C68.4094 68.7061 67.4151 69.9968 65.6815 69.9968ZM65.6815 63.8048C64.2597 63.8048 63.9619 65.2458 63.9619 66.4535C63.9619 67.6613 64.2597 69.1023 65.6815 69.1023C67.1033 69.1023 67.4011 67.6613 67.4011 66.4535C67.4011 65.2458 67.1033 63.8048 65.6815 63.8048Z" fill="currentColor"/>
        <path d="M72.7095 69.9975C71.2148 69.9975 70.2486 69.122 70.2486 67.7673V63.0003H71.2557V67.8249C71.2557 68.6013 71.8264 69.1029 72.7095 69.1029C73.5926 69.1029 74.1626 68.6013 74.1626 67.8249V63.0003H75.1697V67.7673C75.1697 69.122 74.2041 69.9975 72.7095 69.9975Z" fill="currentColor"/>
        <path d="M82.2239 69.908H81.1274L79.7854 66.8918H78.4569V69.908H77.4498V63.0003H79.7177C81.2117 63.0003 82.068 63.6872 82.068 64.8821C82.068 65.7448 81.6277 66.3679 80.7919 66.6906L82.2239 69.908ZM78.4569 65.9972H79.6532C80.9152 65.9972 81.0603 65.3838 81.0603 64.9205C81.0603 64.2048 80.6373 63.8981 79.6442 63.8981H78.4569V65.9972Z" fill="currentColor"/>
        <path d="M85.4657 63.0003H84.458V69.9067H85.4657V63.0003Z" fill="currentColor"/>
        <path d="M89.9698 70C88.4668 70 87.847 69.0319 87.4745 68.1884L87.415 68.0574L88.3499 67.7251L88.3966 67.8497C88.7193 68.6932 89.2452 69.1022 90.0069 69.1022C90.8357 69.1022 91.3309 68.706 91.3309 68.0415C91.3309 67.3385 90.5769 67.0573 89.704 66.7314C88.718 66.3672 87.601 65.9519 87.601 64.7537C87.601 63.6834 88.4969 62.9102 89.7308 62.9102C90.8676 62.9102 91.69 63.5236 92.0466 64.6387L92.092 64.7793L91.1571 64.987L91.1245 64.8624C90.9545 64.201 90.4267 63.8048 89.7123 63.8048C89.304 63.8048 88.6183 63.923 88.6074 64.6994C88.5998 65.2618 89.3014 65.5238 90.1136 65.8273C91.1558 66.2139 92.3386 66.6547 92.3386 67.9136C92.3386 69.2204 91.453 70 89.9698 70Z" fill="currentColor"/>
        <path d="M100.192 69.908H99.2584V64.5243L97.6111 69.908H96.8404L95.1841 64.5211V69.908H94.2505V63.0003H95.6263L97.2251 68.0772L98.7983 63.0003H100.192V69.908Z" fill="currentColor"/>
        <path d="M106.98 69.908H102.546V63.0003H106.796V63.8981H103.553V65.8503H105.859V66.7449H103.553V69.0102H106.98V69.908Z" fill="currentColor"/>
        <path d="M22.8989 15.0492L22.8311 15.1866C22.6874 15.6543 22.5602 17.9554 22.5493 20.2712C22.5385 17.9554 22.4113 15.6543 22.2675 15.1859L22.2394 15.0965L22.1806 15.0236C22.1327 14.9642 21.0042 13.5692 20.3844 12.9059C19.9064 12.3934 19.4546 11.9091 19.0226 11.3589C18.5299 10.732 18.2603 10.1518 18.1478 9.47633C17.7817 7.2762 18.6111 3.61401 19.1351 1.419H25.9642C26.4882 3.61465 27.317 7.27748 26.9509 9.47633C26.839 10.1518 26.5694 10.732 26.0767 11.3589C25.6441 11.9091 25.1923 12.3934 24.7054 12.9149C24.1009 13.5615 23.4759 14.2312 22.8989 15.0492ZM25.1156 27.1706L19.9799 27.1719C20.6476 26.8671 21.4343 26.3642 22.1071 25.4824C22.419 25.0747 22.5391 23.0541 22.5493 20.9019C22.5596 23.0541 22.6797 25.0747 22.9903 25.4824C23.6625 26.3629 24.4478 26.8652 25.1156 27.1706ZM18.5376 26.6575C19.084 24.3046 19.7236 21.1102 19.3645 18.9529C19.2265 18.1203 18.8865 17.3822 18.2961 16.6307C17.8353 16.0447 17.3452 15.5195 16.8711 15.0115C16.3055 14.4063 15.7221 13.7814 15.1968 13.0491C14.878 11.7314 14.9042 4.39808 15.2186 3.69453C16.1413 2.48679 17.3158 2.1398 17.9465 1.95321C17.9734 1.94554 17.9932 1.93851 18.0174 1.93148C17.4711 4.28242 16.8308 7.47557 17.1912 9.63544C17.3299 10.4694 17.6692 11.2068 18.2596 11.9576C18.7172 12.5404 19.2041 13.0631 19.6846 13.5769C20.1914 14.12 21.1116 15.2466 21.362 15.554C21.6777 16.9093 21.6502 24.1928 21.3365 24.8938C20.4137 26.1028 19.2392 26.4498 18.6085 26.6358C18.5823 26.6441 18.5619 26.6498 18.5376 26.6575ZM10.5921 27.17C10.0675 24.9737 9.23803 21.3134 9.60483 19.112C9.71729 18.4372 9.98696 17.857 10.479 17.2301C10.9142 16.6767 11.3902 16.1668 11.8497 15.6741C12.4612 15.0198 13.5897 13.6248 13.6376 13.5654L13.6964 13.4919L13.7239 13.4031C13.8677 12.934 13.9949 10.6368 14.0057 8.3229C14.0172 10.6368 14.1444 12.934 14.2882 13.4024L14.3559 13.5405C14.931 14.3558 15.5572 15.0255 16.1624 15.6741C16.6225 16.1668 17.0985 16.6767 17.5331 17.2301C18.0258 17.857 18.2954 18.4372 18.4079 19.112C18.7734 21.3096 17.9452 24.9731 17.4206 27.17H10.5921ZM6.69859 24.9302C6.36119 24.1915 6.33499 16.8576 6.65386 15.5399C7.18041 14.8057 7.76319 14.1814 8.33638 13.5679C8.80798 13.0625 9.29554 12.5404 9.75244 11.9576C10.3435 11.2061 10.6828 10.4681 10.8215 9.63544C11.1806 7.47813 10.5403 4.2837 9.99463 1.93148C10.0189 1.93851 10.0387 1.9449 10.0649 1.95257C10.6956 2.13917 11.8701 2.48615 12.7699 3.65874C13.1066 4.39552 13.1347 11.6803 12.8191 13.035C12.5679 13.343 11.6478 14.4696 11.141 15.0115C10.6669 15.5195 10.1767 16.0447 9.71665 16.6307C9.1262 17.3816 8.78625 18.1203 8.64822 18.9529C8.28782 21.1128 8.92811 24.3059 9.47447 26.6575C9.45018 26.6498 9.4291 26.6434 9.4029 26.6358C8.77219 26.4492 7.59768 26.1022 6.69859 24.9302ZM2.89198 27.1725C3.56039 26.8677 4.34702 26.3648 5.02054 25.4824C5.33238 25.0747 5.45251 23.0535 5.46274 20.9019C5.47296 23.0535 5.5931 25.0747 5.9043 25.4824C6.57654 26.3629 7.36189 26.8658 8.02966 27.1706L2.89198 27.1725ZM3.2984 12.9059C2.82041 12.3934 2.36863 11.9091 1.93602 11.3582C1.44334 10.732 1.17367 10.1518 1.06185 9.47633C0.695052 7.27556 1.52449 3.61401 2.04848 1.419H8.87763C9.40162 3.61529 10.2304 7.27939 9.86491 9.47633C9.75244 10.1518 9.48277 10.732 8.99009 11.3589C8.55812 11.9084 8.10634 12.3928 7.61877 12.9149C7.0149 13.5615 6.38995 14.2306 5.81228 15.0485L5.74454 15.1866C5.6014 15.6543 5.4736 17.9554 5.46274 20.2712C5.45187 17.9554 5.32471 15.6543 5.18093 15.1859L5.15345 15.0965L5.09402 15.0236C5.04674 14.9642 3.9176 13.5692 3.2984 12.9059ZM16.5752 1.41708C15.9074 1.72189 15.1208 2.22415 14.4473 3.10663C14.1367 3.51368 14.0166 5.53105 14.0057 7.68133C13.9955 5.53105 13.8754 3.51305 13.5642 3.10663C12.8919 2.22543 12.1072 1.72317 11.4394 1.41836L16.5752 1.41708ZM25.423 13.5679C25.8946 13.0631 26.3821 12.5404 26.839 11.9576C27.4295 11.2068 27.7694 10.4687 27.9081 9.63544C28.3279 7.11325 27.3828 3.17437 26.8186 0.82024L26.7291 0.448334H18.3702L18.3587 0.496899C18.2986 0.473255 18.2334 0.455363 18.1593 0.448334L9.8042 0.45089C9.75116 0.456641 9.70004 0.469421 9.65211 0.488591L9.64253 0.448334H1.28358L1.19476 0.82024C0.629873 3.17373 -0.315869 7.11133 0.104602 9.63544C0.243268 10.4694 0.583224 11.2068 1.17303 11.9576C1.63057 12.5404 2.1175 13.0625 2.59804 13.5769C3.10477 14.1194 4.02496 15.246 4.27545 15.554C4.59112 16.9093 4.56364 24.1928 4.24989 24.8932C3.32715 26.1028 2.15264 26.4498 1.52194 26.6358C1.21777 26.7252 1.03373 26.7795 0.902731 26.9444C0.728919 27.1642 0.679077 27.5234 0.786431 27.779C0.872059 27.9815 1.04907 28.1157 1.31042 28.14L9.66617 28.1375C9.71921 28.1323 9.77033 28.1196 9.81762 28.1004L9.8272 28.14H18.1861L18.1976 28.0921C18.2577 28.1157 18.3229 28.1336 18.3964 28.14L26.7521 28.1368C26.9636 28.1157 27.1407 27.9815 27.2256 27.7783C27.3336 27.5208 27.2832 27.1617 27.1093 26.9451C26.979 26.7802 26.7949 26.7252 26.4895 26.6358C25.8588 26.4492 24.6843 26.1022 23.7852 24.9302C23.4478 24.1915 23.421 16.8576 23.7398 15.5399C24.267 14.8057 24.8498 14.1814 25.423 13.5679Z" fill="currentColor"/>
        <path d="M114.971 20.0945C114.965 20.1118 114.947 20.1642 114.771 20.2179C114.479 20.3067 114.293 20.4863 114.164 20.6907C113.946 19.7028 113.31 18.9731 112.261 18.5238C112.08 18.4465 111.897 18.3909 111.713 18.336C112.806 18.4893 113.893 18.7085 114.957 18.9322C114.959 18.9654 114.964 18.9993 114.968 19.0319C114.992 19.191 114.993 19.9712 114.971 20.0945ZM113.396 23.7995C112.541 26.463 110.174 27.6975 107.499 26.8726C105.997 26.4086 104.981 25.4086 104.396 23.8149C104.252 23.4244 104.139 23.0257 104.019 22.6039L103.94 22.3304C104.03 22.4359 104.158 22.5068 104.308 22.5068H104.308C104.431 22.5068 104.539 22.4576 104.624 22.3828C104.711 22.4685 104.83 22.5222 104.962 22.5222H112.688C112.956 22.5222 113.173 22.3049 113.173 22.0365C113.173 21.7688 112.956 21.5515 112.688 21.5515H104.962C104.915 21.5515 104.871 21.5662 104.828 21.5783C104.901 21.0927 105.099 20.6805 105.43 20.3354C105.452 20.5827 105.653 20.7789 105.906 20.7789H107.489C107.757 20.7789 107.974 20.5617 107.974 20.2939C107.974 20.0262 107.757 19.8089 107.489 19.8089H106.12C107.049 19.2728 108.116 19.021 109.549 19.0025C110.219 19.0178 111.091 19.0798 111.878 19.4165C112.784 19.8044 113.229 20.4121 113.279 21.3304C113.293 21.5988 113.53 21.8039 113.791 21.7886C113.808 21.7879 113.822 21.779 113.839 21.7764L113.8 21.9962C113.686 22.6289 113.58 23.2263 113.396 23.7995ZM102.18 20.9131C101.32 20.915 100.776 21.2799 100.518 22.0186C100.52 21.1265 100.229 20.3591 99.6798 19.745C99.7086 19.7674 99.7399 19.7853 99.7693 19.8083C100.14 20.1041 100.537 20.2313 101.003 20.216C101.769 20.1878 102.553 20.1955 103.314 20.2019L103.465 20.2038C103.842 20.2019 104.171 20.0933 104.443 19.8562C104.6 19.7207 104.762 19.5967 104.927 19.4772C104.215 20.1182 103.834 20.9662 103.824 21.972C103.554 21.2505 103.023 20.901 102.18 20.9131ZM100.048 23.6494C99.2792 26.0431 97.1845 27.3991 94.7147 27.0924C92.7964 26.8591 91.5331 25.7575 90.9611 23.8187C90.8129 23.3177 90.7023 22.8116 90.6097 22.3317C90.6985 22.4448 90.8301 22.5222 90.9848 22.5222H98.8619C99.1303 22.5222 99.3469 22.3049 99.3469 22.0365C99.3469 21.7688 99.1303 21.5515 98.8619 21.5515H90.9848C90.9848 21.5515 90.9841 21.5521 90.9835 21.5521C91.0244 21.4857 91.0557 21.4128 91.0602 21.331C91.0742 21.0908 91.1158 20.8722 91.1835 20.6728C91.2653 20.7355 91.3631 20.7789 91.4736 20.7789H93.1804C93.4488 20.7789 93.6661 20.5617 93.6661 20.2939C93.6661 20.0262 93.4488 19.8089 93.1804 19.8089H91.7989C91.9842 19.6594 92.2021 19.5277 92.4609 19.4165C93.2494 19.0798 94.1204 19.0178 94.7741 19.0025C96.272 19.0216 97.3641 19.2868 98.3149 19.8613C99.1463 20.3642 99.5495 21.0703 99.5469 22.0205C99.5463 22.2889 99.7629 22.5062 100.032 22.5068H100.033C100.206 22.5068 100.35 22.4122 100.436 22.2761C100.394 22.4263 100.352 22.5777 100.312 22.7286C100.229 23.0372 100.145 23.3458 100.048 23.6494ZM90.5809 21.7847C90.5592 21.8186 90.5413 21.8544 90.5285 21.8934C90.5215 21.855 90.5157 21.8167 90.5087 21.7783C90.5228 21.7809 90.5349 21.7879 90.549 21.7886C90.5598 21.7892 90.5694 21.7847 90.5809 21.7847ZM89.3687 20.1674C89.3764 19.931 89.3745 19.4849 89.3713 19.0025C90.4365 18.7494 91.4902 18.5168 92.551 18.3615C92.3932 18.4114 92.236 18.4567 92.08 18.5238C90.9988 18.9865 90.3547 19.7424 90.1534 20.7751C89.9649 20.5048 89.7087 20.2965 89.3687 20.1674ZM116.019 6.84074C116.023 4.40546 114.856 2.06859 112.899 0.58927C112.684 0.428238 112.382 0.469774 112.219 0.683204C112.058 0.897274 112.1 1.20144 112.314 1.36312C114.03 2.65968 115.052 4.70708 115.049 6.83883L115.024 17.9602C113.344 17.6081 111.609 17.2516 109.84 17.1857C107.401 17.0995 105.425 17.7302 103.812 19.1264C103.734 19.1942 103.648 19.2383 103.481 19.2383H103.474L103.322 19.2376C102.552 19.2306 101.755 19.2242 100.967 19.2523C100.718 19.2593 100.56 19.205 100.37 19.0536C99.3086 18.2075 98.1315 17.6554 96.8714 17.4126C95.8375 17.2132 94.7684 17.1653 93.6009 17.2656C92.1465 17.3921 90.7381 17.6912 89.3157 18.0267L89.2914 6.83883C89.2882 4.70708 90.31 2.65968 92.0264 1.36312C92.2404 1.20144 92.282 0.897274 92.1203 0.683204C91.9593 0.469774 91.6564 0.428238 91.4417 0.58927C89.4831 2.06859 88.3175 4.40546 88.3214 6.84074L88.3495 20.0083C88.3501 20.0843 88.3706 20.154 88.4025 20.2179C88.3821 20.7457 88.7035 20.9642 88.9808 21.0537C89.3016 21.1572 89.4582 21.3566 89.5234 21.7426C89.6403 22.4436 89.793 23.2711 90.0358 24.0922C90.7177 26.401 92.2954 27.7697 94.5978 28.0503C94.8719 28.0841 95.1422 28.1001 95.4068 28.1001C97.9992 28.1001 100.134 26.5332 100.966 23.9446C101.068 23.6257 101.156 23.303 101.243 22.9803C101.294 22.7912 101.345 22.602 101.399 22.4135C101.504 22.0518 101.647 21.8793 102.182 21.878C102.72 21.8851 102.844 22.0173 102.961 22.4135L103.091 22.8672C103.21 23.2877 103.334 23.7235 103.49 24.1478C104.177 26.0169 105.43 27.2438 107.214 27.794C110.38 28.7717 113.301 27.2502 114.315 24.0948C114.518 23.4596 114.636 22.8014 114.748 22.1649L114.839 21.6672C114.899 21.3502 114.951 21.1719 115.051 21.1412C115.482 21.0109 115.762 20.7636 115.884 20.4064C115.897 20.3668 115.908 20.3118 115.917 20.2479C115.959 20.1763 115.99 20.0977 115.99 20.0083L116.019 6.84074Z" fill="currentColor"/>
        <path d="M97.0784 19.8102H94.6911C94.4227 19.8102 94.2054 20.0275 94.2054 20.2959C94.2054 20.5636 94.4227 20.7809 94.6911 20.7809H97.0784C97.3468 20.7809 97.5641 20.5636 97.5641 20.2959C97.5641 20.0275 97.3468 19.8102 97.0784 19.8102Z" fill="currentColor"/>
        <path d="M98.4303 23.2575H98.4271L91.6433 23.2971C91.3756 23.2984 91.1596 23.5163 91.1615 23.7847C91.1628 24.0511 91.3794 24.2665 91.6465 24.2665H91.6497L98.4335 24.2275C98.7012 24.2256 98.9172 24.0077 98.9153 23.7393C98.914 23.4728 98.6974 23.2575 98.4303 23.2575Z" fill="currentColor"/>
        <path d="M96.183 25.0465H93.5177C93.2493 25.0465 93.0321 25.2638 93.0321 25.5322C93.0321 25.7999 93.2493 26.0172 93.5177 26.0172H96.183C96.4508 26.0172 96.668 25.7999 96.668 25.5322C96.668 25.2638 96.4508 25.0465 96.183 25.0465Z" fill="currentColor"/>
        <path d="M111.348 19.8102H109.017C108.749 19.8102 108.532 20.0275 108.532 20.2959C108.532 20.5636 108.749 20.7809 109.017 20.7809H111.348C111.616 20.7809 111.833 20.5636 111.833 20.2959C111.833 20.0275 111.616 19.8102 111.348 19.8102Z" fill="currentColor"/>
        <path d="M112.233 23.2575H112.231L105.655 23.2971C105.388 23.2984 105.172 23.5163 105.173 23.7847C105.175 24.0511 105.391 24.2665 105.659 24.2665H105.662L112.237 24.2275C112.505 24.2256 112.721 24.0077 112.719 23.7393C112.717 23.4728 112.5 23.2575 112.233 23.2575Z" fill="currentColor"/>
        <path d="M109.866 25.0465H107.629C107.361 25.0465 107.144 25.2638 107.144 25.5322C107.144 25.7999 107.361 26.0172 107.629 26.0172H109.866C110.134 26.0172 110.351 25.7999 110.351 25.5322C110.351 25.2638 110.134 25.0465 109.866 25.0465Z" fill="currentColor"/>
        <path d="M49.7796 24.2521C47.9137 25.9787 45.6784 26.8324 43.6131 26.649C44.3908 26.0074 45.0643 25.1901 45.5941 24.2386C45.8081 24.0629 46.019 23.868 46.2311 23.6789C46.3474 23.5734 46.4657 23.4788 46.5813 23.3702C46.9187 23.0533 47.2529 22.7203 47.5801 22.3702C47.6402 22.3056 47.7092 22.2296 47.7827 22.1459C47.805 22.1203 47.8293 22.0915 47.853 22.0647C47.9066 22.0027 47.9622 21.9382 48.0217 21.8685C48.053 21.8308 48.0862 21.7912 48.1188 21.7522C48.1776 21.6819 48.2389 21.6078 48.3022 21.5305C48.3367 21.489 48.3706 21.4474 48.4064 21.404C48.483 21.3094 48.5635 21.2091 48.646 21.1062C48.6722 21.073 48.6965 21.0436 48.7227 21.0103C48.8313 20.8736 48.9438 20.7298 49.0607 20.5803C49.101 20.5292 49.1425 20.4742 49.1834 20.4218C49.262 20.3202 49.3412 20.218 49.423 20.1112C49.4805 20.0358 49.5393 19.9585 49.5981 19.8806C49.6658 19.7924 49.7342 19.7016 49.8039 19.6096C49.8716 19.5195 49.9393 19.4288 50.009 19.3361C50.0684 19.2562 50.1291 19.1751 50.1898 19.0933C50.2704 18.9847 50.3502 18.8767 50.432 18.7648C50.4589 18.7284 50.4863 18.6914 50.5125 18.6549C53.2731 14.8905 56.9008 9.36813 57.8075 6.08744C57.8701 6.43889 57.9008 6.8255 57.8963 7.24916C57.8382 12.4974 52.4865 21.7471 49.7796 24.2521ZM32.2898 20.3336C31.9843 15.0943 34.295 5.58645 37.3284 2.37157C37.3904 2.30511 37.4517 2.25719 37.5131 2.19776C35.8555 6.18521 35.2382 15.5218 35.2299 15.6413C35.2133 15.9078 35.4158 16.1385 35.6829 16.1557C35.9443 16.1692 36.1801 15.9704 36.1967 15.7027C36.6402 8.75979 37.8102 3.57803 38.6339 1.94215V27.0343C37.2805 26.4982 36.1775 23.7076 36.083 20.3483C36.0561 19.3872 36.0695 18.2824 36.1226 17.0638C36.1347 16.7967 35.9277 16.5705 35.6606 16.559C35.3864 16.5353 35.1673 16.7545 35.1558 17.0216C35.1014 18.2632 35.0874 19.3917 35.1155 20.3758C35.1915 23.1076 35.8484 25.378 36.8434 26.7365C34.3033 25.8164 32.4674 23.3715 32.2898 20.3336ZM39.6027 1.89167C41.4175 4.70844 42.3907 16.4133 42.1248 20.3285C41.8884 23.8214 40.8641 26.4611 39.6027 27.0203V1.89167ZM41.5191 2.83358C42.6424 4.16464 43.5754 6.27275 44.2937 8.60132L44.2809 8.61154L44.3723 8.9253C44.732 10.1599 45.0426 11.4807 45.2956 12.8501C45.5915 14.4502 45.7947 16.0407 45.8829 17.4517L45.8835 17.4606C45.9589 18.6722 45.9468 19.6837 45.8497 20.3854C45.7736 20.9337 45.6528 21.4602 45.4988 21.9682C44.8202 24.0623 43.4265 25.9365 41.3325 26.7295C42.3856 25.2125 42.9364 22.6833 43.091 20.3943C43.3096 17.1673 42.622 6.25805 40.8027 2.12108C41.0443 2.32045 41.2833 2.55433 41.5191 2.83358ZM55.3652 3.92757C55.3039 3.95952 55.2381 3.99978 55.1754 4.03301C55.0924 4.07838 55.0093 4.12375 54.9237 4.17295C54.831 4.22599 54.7377 4.28158 54.6431 4.33973C54.5671 4.38638 54.4904 4.43495 54.4131 4.48415C54.0386 4.72314 53.6488 4.99281 53.2494 5.28803C53.1996 5.32509 53.1504 5.36152 53.0999 5.39858C52.967 5.49827 52.8334 5.60051 52.6992 5.70531C52.6564 5.73726 52.6143 5.77112 52.5721 5.80435C52.1043 6.17051 51.6315 6.55903 51.1611 6.96097C51.1567 6.96416 51.1522 6.968 51.1477 6.97183C50.9861 7.1105 50.8257 7.24916 50.6653 7.38911C50.655 7.39869 50.6448 7.40764 50.634 7.41659C49.979 7.99106 49.3406 8.57448 48.745 9.13553L48.7444 9.13617C48.1527 9.69339 47.6063 10.2231 47.1302 10.6941C47.1104 10.7133 47.0906 10.7331 47.0715 10.7522C46.7603 11.0602 46.4829 11.3395 46.2439 11.5817C46.2062 11.6194 46.1679 11.6584 46.1321 11.6948C46.1219 11.705 46.1097 11.7178 46.1002 11.7274C45.9046 10.7995 45.6758 9.86657 45.4132 8.95469C49.37 5.87017 53.1242 4.01767 55.3652 3.92757ZM48.3546 10.8436C48.5961 10.6072 48.8351 10.3765 49.0703 10.1535C49.1425 10.0845 49.2141 10.0167 49.2863 9.949C49.5425 9.70681 49.7956 9.47038 50.0441 9.24353C50.0793 9.21094 50.1151 9.17707 50.1509 9.14448C52.9779 6.56286 55.1882 4.97747 56.2988 4.50907L46.7922 16.1442C46.69 15.1212 46.5353 14.0182 46.3289 12.8865C46.9424 12.2475 47.5424 11.6392 48.1233 11.0679C48.2012 10.9919 48.2773 10.9184 48.3546 10.8436ZM57.0484 5.33979C57.0292 5.43628 57.0043 5.53852 56.9755 5.6446C56.9711 5.66058 56.9685 5.67463 56.9647 5.69061C56.9295 5.81586 56.888 5.94877 56.8413 6.08808C56.8298 6.12003 56.8164 6.15581 56.8049 6.1884C56.7672 6.29575 56.7282 6.40503 56.6841 6.51941C56.6637 6.57309 56.64 6.62996 56.6183 6.68492C56.5787 6.78332 56.5391 6.88237 56.4956 6.98525C56.4688 7.04979 56.4394 7.11561 56.4106 7.18079C56.3672 7.28112 56.3225 7.38336 56.2752 7.48752C56.2439 7.55653 56.2106 7.62682 56.178 7.69775C56.1288 7.80319 56.0784 7.9099 56.026 8.01854C55.9908 8.09202 55.955 8.16615 55.9173 8.24091C55.8636 8.35146 55.8074 8.46393 55.7499 8.57767C55.7109 8.65372 55.6726 8.7304 55.633 8.80772C55.5716 8.92658 55.5084 9.04671 55.4445 9.16812C55.4048 9.24353 55.3652 9.31893 55.3243 9.39561C55.2553 9.52469 55.1837 9.65633 55.1115 9.78861C55.0719 9.86018 55.0342 9.93047 54.9946 10.0027C54.8968 10.179 54.7965 10.358 54.6936 10.5382C54.6783 10.5663 54.6636 10.5931 54.6476 10.6212C54.5281 10.8315 54.4048 11.0436 54.2795 11.2577C54.2406 11.3242 54.2003 11.3913 54.1607 11.4584C54.0738 11.606 53.9869 11.7536 53.8974 11.9031C53.8456 11.9887 53.7932 12.075 53.7408 12.1619C53.6616 12.2929 53.5817 12.4239 53.5012 12.5562C53.4437 12.6495 53.3855 12.7434 53.3274 12.8373C53.2488 12.9639 53.1702 13.0904 53.0903 13.2169C53.0309 13.3128 52.9702 13.408 52.9101 13.5038C52.8309 13.6291 52.751 13.7543 52.6705 13.8802C52.6085 13.9767 52.5465 14.0738 52.4833 14.171C52.4034 14.2956 52.3222 14.4195 52.2411 14.5441C52.1785 14.64 52.1165 14.7352 52.0532 14.8311C51.9682 14.9601 51.8819 15.0892 51.7963 15.2183C51.7369 15.3071 51.6781 15.396 51.6193 15.4835C51.5247 15.6241 51.4302 15.7634 51.3356 15.9021C51.2838 15.9781 51.2321 16.0548 51.1803 16.1302C51.0525 16.3168 50.9247 16.5008 50.7969 16.6842C50.7777 16.711 50.7592 16.7392 50.74 16.7666C50.5943 16.9743 50.4486 17.1807 50.3036 17.3839C50.2518 17.4555 50.2007 17.5264 50.1496 17.5974C50.055 17.729 49.9604 17.86 49.8665 17.9891C49.8064 18.0715 49.747 18.1514 49.6869 18.2325C49.6026 18.3476 49.5176 18.4619 49.4332 18.5751C49.3713 18.6581 49.3099 18.7399 49.2479 18.8217C49.1668 18.9297 49.085 19.0377 49.0038 19.1431C48.9431 19.2224 48.8831 19.3003 48.8223 19.3783C48.7418 19.4825 48.6613 19.5853 48.5814 19.6863C48.5227 19.7623 48.4632 19.8365 48.4051 19.9099C48.3265 20.0084 48.2485 20.1055 48.1706 20.2007C48.113 20.2716 48.0555 20.3438 47.998 20.4122C47.9188 20.5093 47.8408 20.602 47.7629 20.6953C47.7117 20.756 47.6593 20.8186 47.6089 20.8781C47.5226 20.979 47.4389 21.0742 47.3558 21.1701C47.3143 21.2167 47.2721 21.2659 47.2318 21.3113C47.1085 21.4493 46.9884 21.5823 46.8714 21.7075C46.7456 21.8417 46.6158 21.9618 46.4887 22.0909C46.6452 21.5631 46.7666 21.0084 46.8484 20.4295C46.9507 19.7029 46.9673 18.7041 46.9021 17.543L57.0893 5.0746C57.0835 5.127 57.0752 5.18131 57.0656 5.23819C57.0599 5.27269 57.056 5.30464 57.0484 5.33979ZM57.6874 3.71733C57.6874 3.71669 57.6868 3.71606 57.6861 3.71542L57.6765 3.70583V3.70519H57.6772L57.6548 3.68155C57.6548 3.68155 57.6542 3.68155 57.6542 3.68091L57.619 3.64385C55.2662 1.54916 49.5464 4.57169 45.1116 7.96486C44.3748 5.66824 43.4208 3.58634 42.259 2.2099C41.2973 1.06862 40.2461 0.469864 39.1228 0.425772C39.1164 0.425133 39.11 0.422577 39.1036 0.422577C39.1017 0.422577 39.0998 0.423216 39.0978 0.423216C39.0946 0.423216 39.0908 0.422577 39.0876 0.422577C38.2569 0.422577 37.4281 0.854551 36.6242 1.707C33.3825 5.14297 31.0002 14.8515 31.3236 20.3899C31.5798 24.7869 34.918 28.1028 39.0876 28.1028C39.0908 28.1028 39.0946 28.1021 39.0985 28.1021C39.0998 28.1021 39.1017 28.1028 39.1036 28.1028C39.1081 28.1028 39.1132 28.1008 39.1176 28.1008C40.2442 28.097 41.2973 27.8408 42.2475 27.3807L42.2507 27.3813C42.8725 27.5577 43.5153 27.6439 44.1659 27.6439C46.3149 27.6439 48.5559 26.7059 50.4384 24.9639C53.213 22.3976 58.8044 12.9415 58.8664 7.25939C58.8836 5.70211 58.4862 4.51227 57.6874 3.71733Z" fill="currentColor"/>
        <path d="M39.776 25.4713C39.7798 25.4713 39.7843 25.4713 39.7881 25.4713C39.783 25.4713 39.7773 25.4713 39.7728 25.4713C39.7741 25.4713 39.7747 25.4713 39.776 25.4713Z" fill="currentColor"/>
        <path d="M66.0485 9.37421H64.8382C64.5705 9.37421 64.3538 9.59147 64.3538 9.85986C64.3538 10.1276 64.5705 10.3449 64.8382 10.3449H66.0485C66.3169 10.3449 66.5342 10.1276 66.5342 9.85986C66.5342 9.59147 66.3169 9.37421 66.0485 9.37421Z" fill="currentColor"/>
        <path d="M76.8364 11.237C76.8364 10.9686 76.6192 10.7514 76.3508 10.7514H74.8791C74.6114 10.7514 74.3941 10.9686 74.3941 11.237C74.3941 11.5048 74.6114 11.722 74.8791 11.722H76.3508C76.6192 11.722 76.8364 11.5048 76.8364 11.237Z" fill="currentColor"/>
        <path d="M77.6092 12.0492H76.3989C76.1312 12.0492 75.9139 12.2665 75.9139 12.5342C75.9139 12.802 76.1312 13.0192 76.3989 13.0192H77.6092C77.8776 13.0192 78.0942 12.802 78.0942 12.5342C78.0942 12.2665 77.8776 12.0492 77.6092 12.0492Z" fill="currentColor"/>
        <path d="M80.171 27.134V21.2039C82.235 23.5286 84.2754 24.7984 84.3706 24.8572L84.3866 24.831V27.134H80.171ZM76.9951 27.134V17.9373C76.9951 14.9154 74.5362 12.4558 71.5137 12.4558C68.4918 12.4558 66.0328 14.9154 66.0328 17.9373V27.134H63.8276V7.94628H79.2004V10.7516H77.7741C77.5057 10.7516 77.2884 10.9688 77.2884 11.2372C77.2884 11.5049 77.5057 11.7222 77.7741 11.7222H79.2004V27.134H76.9951ZM76.0251 27.134H67.0035V17.9373C67.0035 17.6261 67.0348 17.3225 67.0949 17.0286H69.9142C69.3059 17.5021 68.8931 18.2293 68.8931 19.0217C68.8931 19.7744 68.5991 20.2237 68.2873 20.6991C67.9984 21.1387 67.7 21.5943 67.7 22.2321C67.7 22.5184 67.7 22.7382 67.7269 22.903L67.7237 22.9842C67.7173 23.1165 67.7652 23.2456 67.8566 23.3414C67.9486 23.4379 68.0751 23.4922 68.208 23.4922H70.0989V24.1344C70.0989 24.914 70.7334 25.5492 71.5137 25.5492C72.2939 25.5492 72.9284 24.914 72.9284 24.1344V23.4922H74.8199C74.9522 23.4922 75.0794 23.4379 75.1707 23.3414C75.2621 23.2456 75.3113 23.1165 75.3043 22.9842L75.3011 22.903C75.3279 22.7382 75.3279 22.5184 75.3279 22.2321C75.3279 21.5943 75.0295 21.1387 74.7407 20.6991C74.4288 20.2237 74.1349 19.7744 74.1349 19.0217C74.1349 18.2293 73.7221 17.5021 73.1137 17.0286H75.9324C75.9931 17.3225 76.0251 17.6261 76.0251 17.9373V27.134ZM71.5137 14.2182C70.7334 14.2182 70.0989 14.8527 70.0989 15.6323V16.0579H67.4182C68.1326 14.507 69.6976 13.4265 71.5137 13.4265C73.3297 13.4265 74.8947 14.507 75.6091 16.0579H72.9284V15.6323C72.9284 14.8527 72.2939 14.2182 71.5137 14.2182ZM70.3168 17.9558C70.6095 17.6503 71.0114 17.4503 71.4344 17.4503H71.5935C72.0166 17.4503 72.4185 17.6503 72.7105 17.9558H70.3168ZM69.5033 20.5502C69.704 20.1476 69.8631 19.6594 69.8631 19.0217C69.8631 18.9891 69.8714 18.9578 69.8739 18.9258H73.1546C73.1559 18.9578 73.1649 18.9891 73.1649 19.0217C73.1649 19.6594 73.324 20.1476 73.5253 20.5502H69.5033ZM71.9578 16.0579H71.0695V15.6323C71.0695 15.3876 71.2683 15.1882 71.5137 15.1882C71.759 15.1882 71.9578 15.3876 71.9578 15.6323V16.0579ZM71.0695 23.4922H71.9578V24.1344C71.9578 24.3792 71.759 24.5785 71.5137 24.5785C71.2683 24.5785 71.0695 24.3792 71.0695 24.1344V23.4922ZM74.3573 22.2321C74.3573 22.3529 74.3573 22.4474 74.356 22.5216H68.6713C68.6707 22.4474 68.6707 22.3529 68.6707 22.2321C68.6707 21.9816 68.7704 21.7605 68.9148 21.5209H74.1132C74.2576 21.7605 74.3573 21.9816 74.3573 22.2321ZM58.6407 27.134V24.831L58.6567 24.8572C58.7519 24.7984 60.7929 23.528 62.8569 21.2033V27.134H58.6407ZM62.8569 18.1111V19.738L62.8371 19.722C61.2389 21.7388 59.4759 23.1056 58.6407 23.6973V22.3963C59.2523 21.9126 61.1706 20.3195 62.8569 18.1111ZM64.7165 3.25719H66.167V5.05921H64.7165V3.25719ZM68.5882 5.05921H67.137V3.25719H68.5882V5.05921ZM71.0088 5.05921H69.5576V3.25719H71.0088V5.05921ZM73.4294 5.05921H71.9789V3.25719H73.4294V5.05921ZM75.8506 5.05921H74.3994V3.25719H75.8506V5.05921ZM78.2712 5.05921H76.82V3.25719H78.2712V5.05921ZM79.2004 6.97562H63.827V6.02924H79.2004V6.97562ZM84.3866 22.3963V23.698C83.5527 23.1082 81.7928 21.7432 80.1908 19.722L80.171 19.738V18.1111C81.858 20.3195 83.7757 21.9126 84.3866 22.3963ZM85.163 21.7701C85.1349 21.749 82.2849 19.5917 80.279 16.5985C80.2496 16.5538 80.2106 16.5218 80.171 16.4905V5.05921H79.2419V3.25719H80.0534C80.3218 3.25719 80.5384 3.03993 80.5384 2.77218C80.5384 2.5038 80.3218 2.28653 80.0534 2.28653H79.2419V1.11075C79.2419 0.842999 79.0246 0.626373 78.7562 0.626373C78.4885 0.626373 78.2712 0.842999 78.2712 1.11075V2.28653H76.8207V1.11075C76.8207 0.842999 76.6034 0.626373 76.3357 0.626373C76.0673 0.626373 75.8506 0.842999 75.8506 1.11075V2.28653H74.4001V1.11075C74.4001 0.842999 74.1828 0.626373 73.9144 0.626373C73.6467 0.626373 73.4294 0.842999 73.4294 1.11075V2.28653H71.9795V1.11075C71.9795 0.842999 71.7622 0.626373 71.4938 0.626373C71.2261 0.626373 71.0088 0.842999 71.0088 1.11075V2.28653H69.5583V1.11075C69.5583 0.842999 69.3416 0.626373 69.0733 0.626373C68.8055 0.626373 68.5882 0.842999 68.5882 1.11075V2.28653H67.1377V1.11075C67.1377 0.842999 66.9204 0.626373 66.6527 0.626373C66.3843 0.626373 66.167 0.842999 66.167 1.11075V2.28653H64.7165V1.14845C64.7165 0.880701 64.4998 0.663436 64.2321 0.663436C63.9637 0.663436 63.7464 0.880701 63.7464 1.14845V2.28653H62.9739C62.7061 2.28653 62.4889 2.5038 62.4889 2.77218C62.4889 3.03993 62.7061 3.25719 62.9739 3.25719H63.7464V5.05921H62.8569V16.4912C62.818 16.5218 62.7783 16.5538 62.7489 16.5985C60.7431 19.5917 57.8931 21.749 57.865 21.7701C57.7429 21.8621 57.6707 22.0065 57.6707 22.1586V27.6196C57.6707 27.8874 57.888 28.1046 58.1557 28.1046H84.8716C85.1393 28.1046 85.3566 27.8874 85.3566 27.6196V22.1586C85.3566 22.0065 85.285 21.8621 85.163 21.7701Z" fill="currentColor"/>
        <path d="M138.509 25.5989C138.315 26.2034 137.937 26.8865 137.536 26.8265C137.421 26.8092 137.286 26.7344 137.153 26.6296C138.449 21.4325 137.342 14.1561 136.621 10.4945C137.678 12.5796 139.023 15.4942 139.286 17.5518C139.715 20.9188 139.326 23.0518 138.509 25.5989ZM135.434 22.9176C135.847 19.7091 135.684 12.5125 134.231 9.86829C134.562 9.55773 134.921 9.19989 135.268 8.81264C135.698 10.683 137.551 19.3934 136.403 25.5075C136.09 24.6334 135.76 23.7669 135.434 22.9176ZM129.212 27.1249C128.46 27.0801 127.453 26.5817 126.577 25.4756H131.847C130.972 26.5817 129.964 27.0801 129.212 27.1249ZM122.021 25.5075C120.874 19.3941 122.727 10.6843 123.156 8.81328C123.505 9.20053 123.863 9.55773 124.194 9.86829C122.739 12.5132 122.577 19.7104 122.991 22.9182C122.664 23.7669 122.334 24.6334 122.021 25.5075ZM120.889 26.8265C120.501 26.8801 120.125 26.2513 119.916 25.5989C119.098 23.0512 118.709 20.9175 119.139 17.5518C119.402 15.4942 120.746 12.5796 121.804 10.4945C121.083 14.1561 119.975 21.4325 121.272 26.6296C121.138 26.7344 121.004 26.8092 120.889 26.8265ZM124.35 2.70367C124.35 2.56309 124.452 2.44423 124.573 2.44423H125.866C125.987 2.44423 126.088 2.56309 126.088 2.70367V2.97461C126.088 3.11519 125.987 3.23405 125.866 3.23405H124.573C124.452 3.23405 124.35 3.11519 124.35 2.97461V2.70367ZM129.336 0.977692V0.976413C129.876 1.03392 130.637 1.50041 131.446 2.26914C131.397 2.40461 131.366 2.55031 131.366 2.70367V2.97461C131.366 3.6526 131.901 4.20471 132.559 4.20471H133.637C133.979 4.57215 134.448 5.11595 134.799 5.63419L129.216 5.36005V5.35941L129.212 5.36005L129.209 5.35941V5.36005L123.626 5.63419C123.976 5.11595 124.445 4.57215 124.787 4.20471H125.866C126.523 4.20471 127.059 3.6526 127.059 2.97461V2.70367C127.059 2.55031 127.028 2.40461 126.978 2.26914C127.798 1.49018 128.546 1.03009 129.088 0.975775L129.336 0.977692ZM132.559 2.44423H133.852C133.972 2.44423 134.075 2.56309 134.075 2.70367V2.97461C134.075 3.11519 133.972 3.23405 133.852 3.23405H132.559C132.438 3.23405 132.337 3.11519 132.337 2.97461V2.70367C132.337 2.56309 132.438 2.44423 132.559 2.44423ZM132.355 10.2076L132.167 10.352L132.166 10.5885C132.165 10.6818 132.161 11.5994 132.188 12.7841L132.178 12.779C131.78 13.5791 130.634 13.8462 129.713 13.9081L129.712 13.8986C129.58 13.9126 129.407 13.9222 129.209 13.9235C129.015 13.9216 128.843 13.912 128.713 13.8986L128.711 13.9075C127.791 13.8462 126.645 13.5791 126.246 12.779L126.237 12.7841C126.263 11.5994 126.259 10.6818 126.258 10.5885L126.256 10.352L126.07 10.2076C126.057 10.1967 124.735 9.17241 123.687 7.95189C123.526 7.76466 123.411 7.62408 123.328 7.51992L123.231 6.62466L129.212 6.33135L135.194 6.62466L135.096 7.51992C135.012 7.62408 134.898 7.76466 134.737 7.95189C133.689 9.17241 132.368 10.1967 132.355 10.2076ZM125.732 18.2368C125.817 17.9736 125.886 17.6138 125.946 17.2029H132.479C132.539 17.6138 132.609 17.9736 132.692 18.2368C132.776 18.4956 132.872 18.7468 132.959 19.0043H125.475C125.561 18.7487 125.649 18.4937 125.732 18.2368ZM128.978 14.8865C129.002 14.8871 129.027 14.8878 129.053 14.8884C129.09 14.889 129.134 14.8916 129.17 14.8916C129.186 14.8916 129.198 14.8909 129.212 14.8909C129.228 14.8909 129.239 14.8916 129.255 14.8916C129.29 14.8916 129.334 14.889 129.372 14.8884C129.398 14.8878 129.423 14.8871 129.446 14.8865C130.225 14.8692 131.379 14.7286 132.232 14.1331C132.262 14.8417 132.304 15.5689 132.366 16.2329H126.06C126.121 15.5689 126.164 14.8417 126.193 14.1337C127.046 14.7286 128.2 14.8692 128.978 14.8865ZM124.937 10.5322C125.076 10.6504 125.199 10.7533 125.29 10.8262C125.291 12.5809 125.213 16.6776 124.809 17.941C124.498 18.9091 124.149 19.8695 123.793 20.8165C123.634 17.323 123.969 12.5477 124.937 10.5322ZM133.429 21.8568H124.996C124.935 21.5654 124.88 21.2657 124.836 20.9475C124.833 20.9188 124.818 20.8958 124.81 20.8696C124.92 20.5724 125.028 20.274 125.136 19.9737H133.296C133.404 20.2727 133.505 20.5718 133.616 20.8676C133.607 20.8945 133.592 20.9181 133.588 20.9475C133.544 21.2657 133.489 21.5654 133.429 21.8568ZM125.247 22.8262H133.177C132.983 23.4633 132.749 24.0225 132.485 24.5049H125.939C125.675 24.0225 125.441 23.4633 125.247 22.8262ZM134.632 20.8159C134.275 19.8682 133.927 18.9084 133.617 17.941C133.165 16.5319 133.136 11.9151 133.135 10.8255C133.225 10.7533 133.349 10.6504 133.488 10.5322C134.454 12.547 134.791 17.3218 134.632 20.8159ZM140.248 17.4291C139.878 14.5242 137.65 10.3341 136.58 8.32124C136.417 8.01451 136.25 7.69948 136.173 7.54164L136.086 7.39467L136.203 6.3256L136.18 6.23933C135.983 5.48721 135.213 4.51464 134.653 3.87945C134.893 3.65452 135.045 3.33374 135.045 2.97461V2.70367C135.045 2.02567 134.51 1.47357 133.852 1.47357H132.559C132.402 1.47357 132.252 1.50743 132.114 1.56495C131.303 0.793655 130.228 0 129.226 0C129.217 0 129.209 0.000639014 129.2 0C128.194 0 127.115 0.801324 126.311 1.56495C126.173 1.50743 126.023 1.47357 125.866 1.47357H124.573C123.915 1.47357 123.379 2.02567 123.379 2.70367V2.97461C123.379 3.3331 123.532 3.65388 123.772 3.87945C123.211 4.514 122.441 5.48658 122.245 6.23869L122.222 6.3256L122.337 7.37806C122.199 7.64772 121.968 8.08992 121.845 8.32124C120.774 10.3341 118.548 14.5242 118.177 17.4291C117.726 20.9571 118.155 23.2844 118.993 25.8954C119.385 27.1204 120.045 27.8009 120.826 27.8009C120.894 27.8009 120.963 27.7958 121.033 27.7856C121.831 27.6655 122.589 26.8009 122.861 26.0347C123.239 24.9682 123.65 23.9004 124.049 22.869C124.088 22.7668 124.127 22.6633 124.167 22.561C125.114 26.3274 127.382 27.8949 128.996 28.0828C129.031 28.0898 129.064 28.1032 129.099 28.1032C129.136 28.1032 129.175 28.0975 129.212 28.0962C129.249 28.0975 129.288 28.1032 129.325 28.1032C129.362 28.1032 129.394 28.0898 129.428 28.0828C131.043 27.8949 133.311 26.3261 134.259 22.5591C134.298 22.6633 134.339 22.7719 134.379 22.8761C134.776 23.9055 135.187 24.9701 135.564 26.0341C135.835 26.8009 136.593 27.6655 137.392 27.7856C137.461 27.7958 137.53 27.8009 137.598 27.8009C138.378 27.8009 139.039 27.1204 139.432 25.8954C140.27 23.2857 140.699 20.959 140.248 17.4291Z" fill="currentColor"/>
        <path d="M129.298 7.82327C129.03 7.82327 128.813 8.04054 128.813 8.30828V10.3455C128.813 10.6138 129.03 10.8311 129.298 10.8311C129.566 10.8311 129.783 10.6138 129.783 10.3455V8.30828C129.783 8.04054 129.566 7.82327 129.298 7.82327Z" fill="currentColor"/>
    </symbol>
</svg>
