<svg width="18" height="20" viewBox="0 0 18 20" fill="none" xmlns="http://www.w3.org/2000/svg">
<path d="M9.27167 0C3.78917 0.000833333 0.875 3.51333 0.875 7.34333C0.875 9.11917 1.8675 11.335 3.45667 12.0375C3.91 12.2417 3.85 11.9925 4.24 10.5008C4.27083 10.3767 4.255 10.2692 4.155 10.1533C1.88333 7.52583 3.71167 2.12417 8.9475 2.12417C16.525 2.12417 15.1092 12.6092 10.2658 12.6092C9.0175 12.6092 8.0875 11.6292 8.38167 10.4167C8.73833 8.9725 9.43667 7.42 9.43667 6.37917C9.43667 3.75583 5.52833 4.145 5.52833 7.62083C5.52833 8.695 5.90833 9.42 5.90833 9.42C5.90833 9.42 4.65083 14.5 4.4175 15.4492C4.0225 17.0558 4.47083 19.6567 4.51 19.8808C4.53417 20.0042 4.6725 20.0433 4.75 19.9417C4.87417 19.7792 6.39417 17.6108 6.82 16.0433C6.975 15.4725 7.61083 13.1558 7.61083 13.1558C8.03 13.9125 9.23833 14.5458 10.5258 14.5458C14.3558 14.5458 17.1242 11.1792 17.1242 7.00167C17.1108 2.99667 13.6833 0 9.27167 0V0Z" fill="white"/>
</svg>
