<svg width="20" height="17" viewBox="0 0 20 17" fill="none" xmlns="http://www.w3.org/2000/svg">
<path d="M20 1.90385C19.2658 2.22889 18.473 2.44559 17.645 2.54233C18.4925 2.03928 19.1408 1.24214 19.4493 0.29409C18.6565 0.758443 17.7778 1.09897 16.8444 1.28084C16.0945 0.49144 15.0283 0 13.8489 0C11.5837 0 9.7481 1.81871 9.7481 4.06309C9.7481 4.38039 9.78325 4.68996 9.85355 4.98792C6.44405 4.81766 3.42121 3.20016 1.39816 0.739095C1.04667 1.33888 0.843585 2.03928 0.843585 2.78225C0.843585 4.19078 1.5661 5.4368 2.66745 6.16428C1.9957 6.14493 1.36302 5.95919 0.808436 5.65736C0.808436 5.67284 0.808436 5.69219 0.808436 5.70767C0.808436 7.6773 2.22222 9.32188 4.10076 9.69336C3.75708 9.78623 3.39387 9.83654 3.01894 9.83654C2.75337 9.83654 2.49951 9.80945 2.24566 9.76301C2.76899 11.3766 4.28432 12.553 6.07694 12.5878C4.67096 13.6791 2.90568 14.3292 0.980277 14.3292C0.648311 14.3292 0.324155 14.3098 0 14.2711C1.81996 15.4281 3.97579 16.0976 6.29174 16.0976C13.8371 16.0976 17.9652 9.90232 17.9652 4.53131C17.9652 4.35331 17.9613 4.17917 17.9535 4.00504C18.7542 3.43621 19.4493 2.72033 20 1.90385Z" fill="white"/>
</svg>
